<svg id="Layer_1" data-name="Layer 1" xmlns="http://www.w3.org/2000/svg" width="404.97" height="500" viewBox="0 0 404.97 500"><defs><style>.cls-1{fill:#ffffff;}</style></defs><title>logo-icon</title><path class="cls-1" d="M47.76,332.52H47.6v9.79c0,39.78-.13,79.55-.07,119.33,0,19.77,14.14,36.5,33.76,37.32,27.28,1.16,54.66.45,82,.45,19.9,0,37.24-18,36.7-40.7-.62-25.46.36-50.94.59-76.42q.46-51.94.93-103.91c.07-6.34,1-7.55,7-9.16a88.48,88.48,0,0,1,42-1.41c25.63,5.46,44.36,25.21,47.11,51.23,1.36,12.93,1.45,26,1.64,39.07.5,34.16.77,68.34,1.11,102.53.23,22.66,16.59,39.12,39.24,39.23q36.58.17,73.2.11c23.05,0,39.51-16.18,39.56-39.23q.22-105.35.18-210.69c0-1.09,0-2.18-.09-3.25-.64-7.39-3.53-13.71-10-17.46a56.09,56.09,0,0,0-14.48-6.06,156,156,0,0,0-60.18-2.55c-15.48,2.36-30.76,6.11-46.13,9.23-20.21,4.07-40.55,5.79-61.13,3.7C234,231,211.06,219.79,189.53,204.9c-10.21-7.07-20.55-14-31.15-20.48-12.91-7.91-27.37-10.52-42.3-11.37-16-.88-32-1.29-47.77,2.35-12.3,2.81-18.73,10-20.14,22.43a71.89,71.89,0,0,0-.43,7.91Q47.77,269.12,47.76,332.52Zm76.11-179.4A76.56,76.56,0,1,0,47.53,76.46,76.59,76.59,0,0,0,123.87,153.12Zm326.78-37.2a76.58,76.58,0,1,0-76.71,76.36A76.65,76.65,0,0,0,450.65,115.92Z" transform="translate(-47.51 0)"/></svg>
